<svg width="35" height="35" viewBox="0 0 35 35" fill="none" xmlns="http://www.w3.org/2000/svg">
<path d="M5.59267 12.5217C5.38064 11.5667 5.4132 10.5735 5.68732 9.63439C5.96143 8.69525 6.46824 7.84053 7.16074 7.14948C7.85324 6.45843 8.70902 5.95341 9.64873 5.68126C10.5884 5.40911 11.5816 5.37863 12.5363 5.59266C13.0617 4.7709 13.7855 4.09464 14.6411 3.6262C15.4966 3.15777 16.4563 2.91223 17.4317 2.91223C18.407 2.91223 19.3667 3.15777 20.2222 3.6262C21.0778 4.09464 21.8016 4.7709 22.327 5.59266C23.2831 5.3777 24.278 5.40804 25.2192 5.68085C26.1604 5.95366 27.0174 6.46009 27.7103 7.15301C28.4032 7.84594 28.9096 8.70286 29.1825 9.64406C29.4553 10.5853 29.4856 11.5802 29.2706 12.5363C30.0924 13.0617 30.7687 13.7855 31.2371 14.6411C31.7055 15.4966 31.9511 16.4563 31.9511 17.4316C31.9511 18.407 31.7055 19.3667 31.2371 20.2222C30.7687 21.0778 30.0924 21.8016 29.2706 22.327C29.4847 23.2817 29.4542 24.2749 29.182 25.2146C28.9099 26.1543 28.4049 27.0101 27.7138 27.7026C27.0228 28.3951 26.1681 28.9019 25.2289 29.176C24.2898 29.4501 23.2966 29.4827 22.3416 29.2706C21.8168 30.0955 21.0924 30.7747 20.2354 31.2452C19.3784 31.7158 18.4166 31.9625 17.4389 31.9625C16.4613 31.9625 15.4994 31.7158 14.6424 31.2452C13.7854 30.7747 13.061 30.0955 12.5363 29.2706C11.5816 29.4847 10.5884 29.4542 9.64873 29.182C8.70902 28.9099 7.85324 28.4049 7.16074 27.7138C6.46824 27.0228 5.96143 26.168 5.68732 25.2289C5.4132 24.2898 5.38064 23.2966 5.59267 22.3416C4.7646 21.8175 4.08253 21.0925 3.60989 20.2341C3.13725 19.3756 2.8894 18.4116 2.8894 17.4316C2.8894 16.4517 3.13725 15.4876 3.60989 14.6292C4.08253 13.7708 4.7646 13.0458 5.59267 12.5217Z" stroke="#FB0000" stroke-width="1.66016" stroke-linecap="round" stroke-linejoin="round"/>
<path d="M17.4316 11.6211V17.4316" stroke="#FB0000" stroke-width="1.66016" stroke-linecap="round" stroke-linejoin="round"/>
<path d="M17.4316 23.2422H17.4462" stroke="#FB0000" stroke-width="1.66016" stroke-linecap="round" stroke-linejoin="round"/>
</svg>
