<svg width="34" height="34" viewBox="0 0 34 34" fill="none" xmlns="http://www.w3.org/2000/svg">
<path d="M22.1355 15.2181L24.9024 17.985L30.4363 12.4512" stroke="#FBFF00" stroke-width="1.66016" stroke-linecap="round" stroke-linejoin="round"/>
<path d="M22.1353 29.0527V26.2858C22.1353 24.8181 21.5523 23.4106 20.5145 22.3728C19.4767 21.335 18.0692 20.752 16.6015 20.752H8.3007C6.83303 20.752 5.42547 21.335 4.38767 22.3728C3.34988 23.4106 2.76685 24.8181 2.76685 26.2858V29.0527" stroke="#FBFF00" stroke-width="1.66016" stroke-linecap="round" stroke-linejoin="round"/>
<path d="M12.4511 15.2181C15.5074 15.2181 17.9849 12.7405 17.9849 9.68425C17.9849 6.62798 15.5074 4.15039 12.4511 4.15039C9.39483 4.15039 6.91724 6.62798 6.91724 9.68425C6.91724 12.7405 9.39483 15.2181 12.4511 15.2181Z" stroke="#FBFF00" stroke-width="1.66016" stroke-linecap="round" stroke-linejoin="round"/>
</svg>
