<svg width="35" height="35" viewBox="0 0 35 35" fill="none" xmlns="http://www.w3.org/2000/svg">
<path d="M21.7896 2.90527H8.71582C7.94529 2.90527 7.20633 3.21136 6.66148 3.75621C6.11664 4.30105 5.81055 5.04002 5.81055 5.81055V29.0527C5.81055 29.8233 6.11664 30.5622 6.66148 31.1071C7.20633 31.6519 7.94529 31.958 8.71582 31.958H26.1475C26.918 31.958 27.657 31.6519 28.2018 31.1071C28.7466 30.5622 29.0527 29.8233 29.0527 29.0527V10.1685L21.7896 2.90527Z" stroke="#1FD655" stroke-width="1.66016" stroke-linecap="round" stroke-linejoin="round"/>
<path d="M20.3369 2.90527V8.71582C20.3369 9.48635 20.643 10.2253 21.1878 10.7702C21.7327 11.315 22.4717 11.6211 23.2422 11.6211H29.0527" stroke="#1FD655" stroke-width="1.66016" stroke-linecap="round" stroke-linejoin="round"/>
<path d="M14.5264 13.0737H11.6211" stroke="#1FD655" stroke-width="1.66016" stroke-linecap="round" stroke-linejoin="round"/>
<path d="M23.2422 18.8843H11.6211" stroke="#1FD655" stroke-width="1.66016" stroke-linecap="round" stroke-linejoin="round"/>
<path d="M23.2422 24.6948H11.6211" stroke="#1FD655" stroke-width="1.66016" stroke-linecap="round" stroke-linejoin="round"/>
</svg>
